<svg xmlns="http://www.w3.org/2000/svg" viewBox="0 0 120 88" fill="none"><rect x="38" y="2" width="44" height="44" rx="10" fill="#2563EB"/><g transform="translate(36 0) scale(1)" stroke="#FFFFFF" stroke-width="2.5" stroke-linecap="round" stroke-linejoin="round" fill="none"><path d="M10 10h10a3 3 0 0 1 3 3v22a3 3 0 0 1-3 3H10z"/><path d="M38 10H28a3 3 0 0 0-3 3v22a3 3 0 0 0 3 3h10z"/><path d="M14 17h5M14 22h5M29 17h5M29 22h5"/><path d="M24 13v25"/></g><text x="60" y="72" text-anchor="middle" font-family="'Inter','Noto Sans JP',system-ui,sans-serif" font-size="22" font-weight="700"><tspan fill="#2563EB">Li</tspan><tspan fill="#0F172A">bro</tspan></text><text x="60" y="84" text-anchor="middle" font-family="'Noto Sans JP',system-ui,sans-serif" font-size="8" fill="#64748B">図書館蔵書管理システム</text></svg>
